<svg xmlns="http://www.w3.org/2000/svg" width="24" height="24" viewBox="0 0 24 24" aria-hidden="true" role="img">
	<path fill="#de7541" d="M 8.1749,7.7936 L 8.1749,5.9147 l -0.1522,0.0088 l 0,-1.1571 l 1.4597,-0.0088 l 0,1.1394 l -0.1504,0 l 0,1.104 z"/>
	<path fill="#fff3e1" d="M 12.0037,5.7165 L 8.3112,9.2586 l 0.1734,4.3525 l 7.4753,-0.0495 l -0.0778,-4.6072 z"/>
	<path fill="#5f4e47" d="M 8.1696,13.6429 l 0.3592,-0.2159 L 8.5288,9.1755 l -0.3344,0.2424 s 0.0372,4.2251 -0.0248,4.2251 z"/>
	<path fill="#5f4e47" d="M 15.6024,9.3294 l 0,4.1331 l 0.3963,0.2229 L 15.9988,9.4833 z"/>
	<path fill="#bda890" d="M 12.0939,5.9607 L 8.1962,9.6196 l -0.023,-0.9926 l 3.9809,-3.7721 l 3.8482,3.9844 l -0.0035,0.8846 z"/>
	<path fill="#904625" d="M 7.7981,8.4518 l -0.2159,0.575 l 0.6016,0.0071 S 12.0302,5.2706 12.1134,5.2671 c 0.1008,-0.0035 3.8854,3.7491 3.8854,3.7491 l 0.5379,0.0035 l -4.1844,-4.5542 l -0.6086,-0.0407 l -3.9455,4.0269 z"/>
	<path fill="#dc7540" d="M 7.0638,8.7402 c -0.1168,0.1115 -0.0495,0.2725 0.0566,0.2813 c 0.1097,0.0088 0.6281,0.0071 0.6281,0.0071 l 4.1861,-4.2321 s 0.0973,-0.0991 0.1663,-0.0955 c 0.0743,0.0035 0.1716,0.0973 0.1716,0.0973 l 4.2268,4.2162 s 0.3132,0.0071 0.4122,0.0018 c 0.1628,-0.0106 0.1964,-0.1964 0.0124,-0.3592 c -0.0832,-0.0743 -4.2782,-4.2481 -4.3489,-4.3224 c -0.2088,-0.2159 -0.3114,-0.3415 -0.5096,-0.3344 c -0.1982,0.0088 -0.3167,0.1557 -0.5149,0.3379 c -0.0619,0.0548 -4.4568,4.3719 -4.4869,4.402 z"/>
	<path fill="#d27857" d="M 10.7723,13.2625 s 0.0159,-2.5159 0.0301,-3.1016 c 0.0142,-0.5856 0.5644,-1.0545 1.1996,-1.0704 c 0.8121,-0.0195 1.1925,0.4706 1.2226,1.0421 c 0.0283,0.5715 0.0283,3.1281 0.0283,3.1281 l -2.4805,0.0018 z"/>
	<path fill="#ffba02" d="M 12.4938,11.4985 c -0.0053,0.1575 0.0584,0.2849 0.2442,0.2849 s 0.2548,-0.0867 0.2672,-0.2565 c 0.0124,-0.1522 -0.0938,-0.2849 -0.2672,-0.2742 s -0.2389,0.1345 -0.2442,0.2459 z"/>
	<path fill="#a6cfd6" d="M 11.3491,8.3616 s 0.0124,-0.6741 0.0195,-0.9943 c 0.0071,-0.3202 0.3079,-0.5768 0.6564,-0.5856 c 0.4264,-0.0106 0.6529,0.2565 0.6688,0.5697 c 0.0159,0.3132 0.0124,1.0085 0.0124,1.0085 l -1.357,0.0018 z"/>
	<path fill="#ab5832" d="M 2.6795,13.4642 L 2.6795,11.6472 l -0.1451,0.0088 l 0,-1.12 l 1.4119,-0.0088 l 0,1.1023 l -0.1469,0 l 0,1.0687 z"/>
	<path fill="#ede0d6" d="M 6.5755,11.3818 L 2.6459,15.1539 l -0.0053,4.4445 l 7.9565,-0.0531 l 0.1062,-4.7169 z"/>
	<path fill="#5f4e47" d="M 2.4937,19.839 l 0.3892,-0.0318 l -0.0053,-4.7452 l -0.3574,0.2583 c 0,0.0018 -0.0248,4.4568 -0.0265,4.5188 z"/>
	<path fill="#5f4e47" d="M 10.4078,15.2264 l -0.0265,4.3949 l 0.4476,0.2619 L 10.8289,15.391 z"/>
	<path fill="#bcafaa" d="M 6.6728,11.6419 l -4.1578,3.9013 l -0.0018,-1.0793 l 4.2215,-4.0004 l 4.0977,4.2428 l -0.0035,0.9413 z"/>
	<path fill="#7f4935" d="M 2.0992,14.2923 l -0.0478,0.621 l 0.4636,-0.0035 s 4.0888,-4.0039 4.1773,-4.0074 c 0.1079,-0.0053 4.1366,4.0039 4.1366,4.0039 l 0.5432,0.0035 l -4.425,-4.8585 l -0.6476,-0.0425 L 2.0992,14.2923 z"/>
	<path fill="#bb8064" d="M 1.3242,14.6037 c -0.1239,0.1203 -0.0531,0.3008 0.0584,0.3061 c 0.0991,0.0035 0.6741,0.0035 0.6741,0.0035 L 6.5083,10.4051 s 0.1026,-0.1062 0.1769,-0.1026 c 0.0796,0.0035 0.1822,0.1044 0.1822,0.1044 L 11.3579,14.9097 s 0.3344,0.0035 0.4459,0.0071 c 0.1433,0.0053 0.1893,-0.2035 -0.0053,-0.3769 c -0.0885,-0.0796 -4.5329,-4.5489 -4.609,-4.6267 c -0.2229,-0.23 -0.3326,-0.3645 -0.5432,-0.3556 c -0.2105,0.0088 -0.3362,0.1645 -0.5485,0.3592 c -0.0619,0.0584 -4.7417,4.655 -4.7736,4.6869 z"/>
	<path fill="#865c51" d="M 5.2645,19.6037 s 0.0159,-2.8663 0.0318,-3.489 s 0.5998,-1.1235 1.2774,-1.1394 c 0.8634,-0.0212 1.2704,0.5007 1.3004,1.1093 c 0.0301,0.6086 0.0301,3.5174 0.0301,3.5174 l -2.6398,0.0018 z"/>
	<path fill="#ffb700" d="M 7.0974,17.5371 c -0.0071,0.1681 0.0619,0.3043 0.2601,0.3043 s 0.2707,-0.0938 0.2849,-0.2725 c 0.0124,-0.161 -0.0991,-0.3043 -0.2849,-0.2919 s -0.2548,0.1415 -0.2601,0.2601 z"/>
	<path fill="#beb4ac" d="M 2.4937,19.8408 l 0.3875,-0.3432 l 7.4983,-0.0018 l 0.4494,0.3892 z"/>
	<path fill="#6ca4ae" d="M 5.8802,14.1967 s 0.0124,-0.7183 0.0212,-1.058 s 0.3273,-0.6139 0.6989,-0.6228 c 0.4547,-0.0106 0.6953,0.2742 0.7113,0.6069 c 0.0177,0.3326 0.0142,1.074 0.0142,1.074 l -1.4455,0 z"/>
	<path fill="#ab5832" d="M 20.2008,13.4731 L 20.2008,11.656 l -0.1469,0.0071 l 0,-1.12 l 1.4119,-0.0071 l 0,1.1023 l -0.1451,0 l 0,1.9533 z"/>
	<path fill="#f5e1d1" d="M 17.3611,11.4189 L 13.4315,15.1911 l 0.2548,4.5701 l 7.73,0.0602 l 0.0743,-4.9558 z"/>
	<path fill="#5f4e47" d="M 13.2705,19.9522 l 0.3928,-0.1486 L 13.6633,15.1008 l -0.3574,0.2583 s 0.0301,4.5931 -0.0354,4.5931 z"/>
	<path fill="#5f4e47" d="M 21.1934,15.2654 l 0.0018,4.5276 l 0.4211,0.207 l -0.0018,-4.5719 z"/>
	<path fill="#d2a67c" d="M 17.4584,11.679 L 13.3077,15.7148 l -0.0088,-1.2137 l 4.2233,-4.0004 l 4.0959,4.2428 l -0.0035,0.9413 z"/>
	<path fill="#893f2e" d="M 12.8848,14.3294 l -0.0743,0.6016 l 0.4919,0.0159 s 4.0888,-4.0039 4.1773,-4.0074 c 0.1079,-0.0053 4.1384,3.9915 4.1384,3.9915 l 0.5396,0.0035 l -4.425,-4.8461 l -0.6476,-0.0425 l -4.2003,4.2835 z"/>
	<path fill="#c67260" d="M 12.1099,14.6408 c -0.1079,0.1062 -0.0602,0.2707 0.0655,0.2795 c 0.069,0.0053 0.6369,0.0106 0.6369,0.0106 l 4.4816,-4.4887 s 0.1026,-0.1062 0.1769,-0.1026 c 0.0796,0.0035 0.1822,0.1044 0.1822,0.1044 l 4.5046,4.4905 s 0.3468,0.0018 0.4299,-0.0018 c 0.1716,-0.0071 0.2282,-0.1699 0.0177,-0.3822 c -0.0832,-0.0832 -4.5542,-4.5223 -4.6285,-4.6002 c -0.2229,-0.23 -0.3326,-0.3645 -0.5432,-0.3556 c -0.2105,0.0088 -0.3362,0.1645 -0.5485,0.3592 c -0.0637,0.0584 -4.7417,4.655 -4.7753,4.6869 z"/>
	<path fill="#ab5832" d="M 16.0518,19.6408 s 0.0159,-2.8663 0.0318,-3.489 c 0.0159,-0.6228 0.5998,-1.1235 1.2774,-1.1394 c 0.8634,-0.0212 1.2704,0.5007 1.3004,1.1093 c 0.0301,0.6086 0.0301,3.5174 0.0301,3.5174 l -2.6398,0.0018 z"/>
	<path fill="#feb800" d="M 17.8848,17.5743 c -0.0071,0.1681 0.0619,0.3043 0.2601,0.3043 s 0.2707,-0.0938 0.2849,-0.2725 c 0.0124,-0.161 -0.0991,-0.3043 -0.2849,-0.2919 c -0.1858,0.0124 -0.2565,0.1415 -0.2601,0.2601 z"/>
	<path fill="#d4a37d" d="M 13.2794,19.954 l 0.3751,-0.345 l 7.5407,0.0018 l 0.4193,0.3875 z"/>
	<path fill="#6ca4ae" d="M 16.6658,14.2339 s 0.0124,-0.7183 0.0212,-1.058 s 0.3273,-0.6139 0.6989,-0.6228 c 0.4547,-0.0106 0.6953,0.2742 0.7113,0.6069 c 0.0177,0.3326 0.0142,1.074 0.0142,1.074 l -1.4455,0 z"/>
</svg>
